# This file uses centimeters as units for non-parametric coordinates.

mtllib wall_crawl.mtl
g default
v -0.367226 -0.314036 0.044361
v -0.367226 0.314036 0.044361
v 0.367226 0.314036 0.044361
v -0.367226 0.314036 -0.044361
v 0.367226 0.314036 -0.044361
v -0.367226 -0.314036 -0.044361
v 0.019677 0.314036 0.044361
v 0.019677 0.314036 -0.044361
v 0.019677 -0.314036 -0.044361
v 0.019677 -0.314036 0.044361
v 0.367226 -0.155258 0.044361
v 0.019677 -0.155258 0.044361
v -0.367226 -0.155258 0.044361
v -0.367226 -0.155258 -0.044361
v 0.019677 -0.155258 -0.044361
v 0.367226 -0.155258 -0.044361
vt 0.375000 0.000000
vt 0.375000 0.250000
vt 0.625000 0.250000
vt 0.375000 0.500000
vt 0.625000 0.500000
vt 0.375000 0.750000
vt 0.375000 1.000000
vt 0.875000 0.250000
vt 0.125000 0.000000
vt 0.125000 0.250000
vt 0.541113 0.250000
vt 0.541113 0.500000
vt 0.541113 0.750000
vt 0.541113 0.000000
vt 0.541113 1.000000
vt 0.625000 0.063201
vt 0.541113 0.063201
vt 0.375000 0.063201
vt 0.125000 0.063201
vt 0.375000 0.686799
vt 0.541113 0.686799
vt 0.625000 0.686799
vt 0.875000 0.063201
vt 0.000000 1.000000
vt 0.269358 1.000000
vt 0.269358 0.000000
vt 0.000000 0.000000
vt 0.000000 0.000000
vt 0.217546 0.000000
vt 0.217546 1.000000
vt 0.000000 1.000000
vn 0.000000 0.000000 1.000000
vn 0.000000 0.000000 1.000000
vn 0.000000 0.000000 1.000000
vn 0.000000 0.000000 1.000000
vn 0.000000 1.000000 0.000000
vn 0.000000 1.000000 0.000000
vn 0.000000 1.000000 0.000000
vn 0.000000 1.000000 0.000000
vn 0.000000 0.000000 -1.000000
vn 0.000000 0.000000 -1.000000
vn 0.000000 0.000000 -1.000000
vn 0.000000 0.000000 -1.000000
vn 0.000000 -1.000000 0.000000
vn 0.000000 -1.000000 0.000000
vn 0.000000 -1.000000 0.000000
vn 0.000000 -1.000000 0.000000
vn -1.000000 0.000000 0.000000
vn -1.000000 0.000000 0.000000
vn -1.000000 0.000000 0.000000
vn -1.000000 0.000000 0.000000
vn 0.000000 1.000000 0.000000
vn 0.000000 1.000000 0.000000
vn 0.000000 0.000000 1.000000
vn 0.000000 0.000000 1.000000
vn 0.000000 0.000000 1.000000
vn 0.000000 0.000000 1.000000
vn -1.000000 -0.000000 0.000000
vn -1.000000 -0.000000 0.000000
vn 0.000000 0.000000 -1.000000
vn 0.000000 0.000000 -1.000000
vn 0.000000 0.000000 -1.000000
vn 0.000000 0.000000 -1.000000
vn 1.000000 0.000000 0.000000
vn 1.000000 0.000000 0.000000
vn 1.000000 0.000000 0.000000
vn 1.000000 0.000000 0.000000
vn 0.000000 -1.000000 0.000000
vn 0.000000 -1.000000 0.000000
vn 0.000000 -1.000000 0.000000
vn 0.000000 -1.000000 0.000000
vn 1.000000 -0.000000 0.000000
vn 1.000000 -0.000000 0.000000
vn 1.000000 -0.000000 0.000000
vn 1.000000 -0.000000 0.000000
s 1
g pCube1
usemtl initialShadingGroup
f 1/1/1 10/14/2 12/17/3 13/18/4
s 2
f 2/2/5 7/11/6 8/12/7 4/4/8
s 3
f 14/20/9 15/21/10 9/13/11 6/6/12
s off
f 6/6/13 9/13/14 10/15/15 1/7/16
s 4
f 6/9/17 1/1/18 13/18/19 14/19/20
s 2
f 7/11/6 3/3/21 5/5/22 8/12/7
s 1
f 7/11/23 12/17/3 11/16/24 3/3/25
f 13/18/4 12/17/3 7/11/23 2/2/26
s 4
f 14/19/20 13/18/19 2/2/27 4/10/28
s 3
f 4/4/29 8/12/30 15/21/10 14/20/9
f 16/22/31 15/21/10 8/12/30 5/5/32
s off
f 11/16/33 16/23/34 5/8/35 3/3/36
f 11/24/37 12/25/38 15/26/39 16/27/40
f 12/28/41 10/29/42 9/30/43 15/31/44
